HIERARCHY
ROOT hip
{
  OFFSET 0.00112043 5.09927 -9.65472
  CHANNELS 6 Xposition Yposition Zposition Zrotation Xrotation Yrotation
  JOINT abdomen
  {
    OFFSET 0 -1.186 -1.5018
    CHANNELS 3 Zrotation Xrotation Yrotation
    JOINT abdomen2
    {
      OFFSET 0 9.964 0.2134
      CHANNELS 3 Zrotation Xrotation Yrotation
      JOINT chest
      {
        OFFSET 0 13.134 -3.2573
        CHANNELS 3 Zrotation Xrotation Yrotation
        JOINT neck
        {
          OFFSET 0 20.686 -1.6905
          CHANNELS 3 Zrotation Xrotation Yrotation
          JOINT head
          {
            OFFSET 0 7.238 -0.1237
            CHANNELS 3 Zrotation Xrotation Yrotation
            End Site
            {
              OFFSET 0 0 0
            }
          }
        }
        JOINT lCollar
        {
          OFFSET 1.7069 20.075 5.0056
          CHANNELS 3 Zrotation Xrotation Yrotation
          JOINT lShldr
          {
            OFFSET 13.6458 -0.047 -4.849
            CHANNELS 3 Zrotation Xrotation Yrotation
            JOINT lForeArm
            {
              OFFSET 28.3255 -0.9759 2.2888
              CHANNELS 3 Zrotation Xrotation Yrotation
              JOINT lHand
              {
                OFFSET 22.1583 -0.53 10.8316
                CHANNELS 3 Zrotation Xrotation Yrotation
                JOINT lThumb1
                {
                  OFFSET 0.786 0.112 2.5817
                  CHANNELS 3 Zrotation Xrotation Yrotation
                  JOINT lThumb2
                  {
                    OFFSET 0.3601 -0.878 4.2331
                    CHANNELS 3 Zrotation Xrotation Yrotation
                    JOINT lThumb2_End
                    {
                      OFFSET 1.8127 -1.216 2.2227
                      CHANNELS 3 Zrotation Xrotation Yrotation
                      End Site
                      {
                        OFFSET 0.0181 -0.0122 0.0222
                      }
                    }
                  }
                }
                JOINT lCarpal1
                {
                  OFFSET 0.9571 1.114 1.7695
                  CHANNELS 3 Zrotation Xrotation Yrotation
                  JOINT lIndex1
                  {
                    OFFSET 4.1246 0.487 4.1451
                    CHANNELS 3 Zrotation Xrotation Yrotation
                    JOINT lIndex2
                    {
                      OFFSET 3.4052 -1.454 2.7682
                      CHANNELS 3 Zrotation Xrotation Yrotation
                      JOINT lIndex2_End
                      {
                        OFFSET 1.4531 -1.795 1.2713
                        CHANNELS 3 Zrotation Xrotation Yrotation
                        End Site
                        {
                          OFFSET 0.0145 -0.0179 0.0127
                        }
                      }
                    }
                  }
                  JOINT lMid1
                  {
                    OFFSET 5.6954 0.21 2.1184
                    CHANNELS 3 Zrotation Xrotation Yrotation
                    JOINT lMid2
                    {
                      OFFSET 3.9766 -1.54 2.3863
                      CHANNELS 3 Zrotation Xrotation Yrotation
                      JOINT lMid2_End
                      {
                        OFFSET 1.4042 -1.926 1.125
                        CHANNELS 3 Zrotation Xrotation Yrotation
                        End Site
                        {
                          OFFSET 0.014 -0.0193 0.0113
                        }
                      }
                    }
                  }
                }
                JOINT lCarpal2
                {
                  OFFSET 2.0956 0.66 -0.3894
                  CHANNELS 3 Zrotation Xrotation Yrotation
                  JOINT lRing1
                  {
                    OFFSET 5.0395 -0.09 2.4971
                    CHANNELS 3 Zrotation Xrotation Yrotation
                    JOINT lRing2
                    {
                      OFFSET 3.7921 -1.552 1.4806
                      CHANNELS 3 Zrotation Xrotation Yrotation
                      JOINT lRing2_End
                      {
                        OFFSET 1.4655 -1.808 0.9609
                        CHANNELS 3 Zrotation Xrotation Yrotation
                        End Site
                        {
                          OFFSET 0.0147 -0.0181 0.0096
                        }
                      }
                    }
                  }
                  JOINT lPinky1
                  {
                    OFFSET 4.9141 -1.269 0.3591
                    CHANNELS 3 Zrotation Xrotation Yrotation
                    JOINT lPinky2
                    {
                      OFFSET 3.1477 -1.685 0.8462
                      CHANNELS 3 Zrotation Xrotation Yrotation
                      JOINT lPinky2_End
                      {
                        OFFSET 0.8055 -1.585 0.7955
                        CHANNELS 3 Zrotation Xrotation Yrotation
                        End Site
                        {
                          OFFSET 0.0081 -0.0158 0.008
                        }
                      }
                    }
                  }
                }
              }
            }
          }
        }
        JOINT rCollar
        {
          OFFSET -1.7069 20.075 5.0056
          CHANNELS 3 Zrotation Xrotation Yrotation
          JOINT rShldr
          {
            OFFSET -13.6458 -0.047 -4.849
            CHANNELS 3 Zrotation Xrotation Yrotation
            JOINT rForeArm
            {
              OFFSET -28.3255 -0.9759 2.2888
              CHANNELS 3 Zrotation Xrotation Yrotation
              JOINT rHand
              {
                OFFSET -22.1583 -0.53 10.8316
                CHANNELS 3 Zrotation Xrotation Yrotation
                JOINT rThumb1
                {
                  OFFSET -0.786 0.112 2.5817
                  CHANNELS 3 Zrotation Xrotation Yrotation
                  JOINT rThumb2
                  {
                    OFFSET -0.3601 -0.878 4.2331
                    CHANNELS 3 Zrotation Xrotation Yrotation
                    JOINT rThumb2_End
                    {
                      OFFSET -1.8127 -1.216 2.2227
                      CHANNELS 3 Zrotation Xrotation Yrotation
                      End Site
                      {
                        OFFSET -0.0181 -0.0122 0.0222
                      }
                    }
                  }
                }
                JOINT rCarpal1
                {
                  OFFSET -0.9571 1.114 1.7695
                  CHANNELS 3 Zrotation Xrotation Yrotation
                  JOINT rIndex1
                  {
                    OFFSET -4.1246 0.487 4.1451
                    CHANNELS 3 Zrotation Xrotation Yrotation
                    JOINT rIndex2
                    {
                      OFFSET -3.4052 -1.454 2.7682
                      CHANNELS 3 Zrotation Xrotation Yrotation
                      JOINT rIndex2_End
                      {
                        OFFSET -1.4531 -1.795 1.2713
                        CHANNELS 3 Zrotation Xrotation Yrotation
                        End Site
                        {
                          OFFSET -0.0145 -0.018 0.0127
                        }
                      }
                    }
                  }
                  JOINT rMid1
                  {
                    OFFSET -5.6954 0.21 2.1184
                    CHANNELS 3 Zrotation Xrotation Yrotation
                    JOINT rMid2
                    {
                      OFFSET -3.9766 -1.54 2.3863
                      CHANNELS 3 Zrotation Xrotation Yrotation
                      JOINT rMid2_End
                      {
                        OFFSET -1.4042 -1.926 1.125
                        CHANNELS 3 Zrotation Xrotation Yrotation
                        End Site
                        {
                          OFFSET -0.014 -0.0193 0.0113
                        }
                      }
                    }
                  }
                }
                JOINT rCarpal2
                {
                  OFFSET -2.0956 0.66 -0.3894
                  CHANNELS 3 Zrotation Xrotation Yrotation
                  JOINT rRing1
                  {
                    OFFSET -5.0395 -0.09 2.4971
                    CHANNELS 3 Zrotation Xrotation Yrotation
                    JOINT rRing2
                    {
                      OFFSET -3.7921 -1.552 1.4806
                      CHANNELS 3 Zrotation Xrotation Yrotation
                      JOINT rRing2_End
                      {
                        OFFSET -1.4655 -1.808 0.9609
                        CHANNELS 3 Zrotation Xrotation Yrotation
                        End Site
                        {
                          OFFSET -0.0147 -0.0181 0.0096
                        }
                      }
                    }
                  }
                  JOINT rPinky1
                  {
                    OFFSET -4.9141 -1.269 0.3592
                    CHANNELS 3 Zrotation Xrotation Yrotation
                    JOINT rPinky2
                    {
                      OFFSET -3.1477 -1.685 0.8462
                      CHANNELS 3 Zrotation Xrotation Yrotation
                      JOINT rPinky2_End
                      {
                        OFFSET -0.8055 -1.585 0.7955
                        CHANNELS 3 Zrotation Xrotation Yrotation
                        End Site
                        {
                          OFFSET -0.0081 -0.0158 0.008
                        }
                      }
                    }
                  }
                }
              }
            }
          }
        }
      }
    }
  }
  JOINT lThigh
  {
    OFFSET 8.367 -8.2066 0.5982
    CHANNELS 3 Zrotation Xrotation Yrotation
    JOINT lShin
    {
      OFFSET 2.1923 -43.463 -0.4932
      CHANNELS 3 Zrotation Xrotation Yrotation
      JOINT lFoot
      {
        OFFSET 0.7333 -45.8593 -2.6451
        CHANNELS 3 Zrotation Xrotation Yrotation
        End Site
        {
          OFFSET 2.6618 -4.2699 12.3931
        }
      }
    }
  }
  JOINT rThigh
  {
    OFFSET -8.367 -8.2066 0.5982
    CHANNELS 3 Zrotation Xrotation Yrotation
    JOINT rShin
    {
      OFFSET -2.1923 -43.463 -0.4931
      CHANNELS 3 Zrotation Xrotation Yrotation
      JOINT rFoot
      {
        OFFSET -0.7333 -45.8593 -2.6451
        CHANNELS 3 Zrotation Xrotation Yrotation
        End Site
        {
          OFFSET -2.6618 -4.2699 12.3931
        }
      }
    }
  }
}
MOTION
Frames:	4
Frame Time:	0.0333333
0 91.7903 2.51682 0 0 -0 0 0 -0 0 0 -0 0 0 -0 0 0 -0 0 0 -0 0 0 -0 1.66051 0.0835086 5.75766 -0.0175111 0.895433 15.7816 7.95139e-016 -1.98785e-016 -0 5.46658e-016 -3.97569e-016 -0 5.96354e-016 0 -0 3.97569e-016 1.98785e-016 9.54166e-015 1.49089e-016 -3.97569e-016 -0 6.4605e-016 0 3.18055e-015 5.96354e-016 0 3.18055e-015 8.94531e-016 -1.98785e-016 6.36111e-015 6.4605e-016 0 3.18055e-015 5.96354e-016 0 3.18055e-015 8.94531e-016 -1.98785e-016 6.36111e-015 1.49089e-016 -3.97569e-016 -0 6.4605e-016 0 3.18055e-015 5.96354e-016 0 3.18055e-015 8.94531e-016 -1.98785e-016 6.36111e-015 6.4605e-016 0 3.18055e-015 5.96354e-016 0 3.18055e-015 8.94531e-016 -1.98785e-016 6.36111e-015 0 0 -0 -1.4496 0.0636048 -5.0245 -1.74811 1.20616 -16.8394 -1.19271e-015 1.98785e-016 -3.18055e-015 -3.97569e-016 1.98785e-016 -3.18055e-015 -2.98177e-016 1.98785e-016 -3.18055e-015 -2.98177e-016 3.97569e-016 -0 4.96962e-016 0 -6.36111e-015 -9.93923e-017 3.97569e-016 -0 -8.94531e-016 5.96354e-016 -0 -3.97569e-016 3.97569e-016 -0 -9.93923e-017 3.97569e-016 -0 -8.94531e-016 5.96354e-016 -0 -3.97569e-016 3.97569e-016 -0 4.96962e-016 0 -6.36111e-015 -9.93923e-017 3.97569e-016 -0 -8.94531e-016 5.96354e-016 -0 -3.97569e-016 3.97569e-016 -0 -9.93923e-017 3.97569e-016 -0 -8.94531e-016 5.96354e-016 -0 -3.97569e-016 3.97569e-016 -0 -4.66111 -0.998717 0.12318 0.00986924 1.54847 0.176523 4.65186 -0.572283 -0.254274 4.66111 -0.998765 -0.123176 -0.00986867 1.54869 -0.176537 -4.65186 -0.572453 0.25427 
-11.0098 1.40977 -14.2207 -97.2022 3.49971 -33.7834 7.60188 17.6619 -2.63069 17.4001 34.739 -8.46176 17.4001 34.739 -8.46177 -21.001 -0.0723777 0.0346332 -0.942477 -0.0262376 -0.000213835 -8.00257 -0.0420805 0.275752 -17.579 -0.859284 -28.2328 -29.7266 0.766104 -72.7786 -6.51218 2.57104 0.0273173 -6.52946e-007 -6.41572e-008 5.42538e-007 -3.18055e-015 0 -7.95139e-016 -6.52946e-007 -6.41573e-008 5.42538e-007 3.18055e-015 0 -3.97569e-016 -6.52946e-007 -6.41572e-008 5.42538e-007 -3.18055e-015 3.18055e-015 -3.97569e-016 -6.52946e-007 -6.41573e-008 5.42538e-007 -6.52946e-007 -6.41572e-008 5.42538e-007 -3.18055e-015 3.18055e-015 -3.97569e-016 -6.52946e-007 -6.41573e-008 5.42538e-007 3.18055e-015 0 -3.97569e-016 -6.52946e-007 -6.41572e-008 5.42538e-007 -3.18055e-015 3.18055e-015 -3.97569e-016 -6.52946e-007 -6.41573e-008 5.42538e-007 -6.52946e-007 -6.41572e-008 5.42538e-007 -3.18055e-015 3.18055e-015 -3.97569e-016 -6.52946e-007 -6.41573e-008 5.42538e-007 7.99915 -0.194723 1.50478e-005 44.7544 -3.35784 76.1664 12.5004 6.96511 3.58343 18.6267 7.3938 -0.714156 -1.15295e-014 4.77083e-015 -0 1.11492e-007 -1.53007e-006 1.46087e-006 -1.18287e-006 2.62925e-007 -6.00196e-007 -1.15295e-014 0 -0 1.51076e-014 6.36111e-015 4.77083e-015 1.11492e-007 -1.53007e-006 1.46087e-006 -1.18287e-006 2.62925e-007 -6.00196e-007 1.51076e-014 6.36111e-015 4.77083e-015 1.11492e-007 -1.53007e-006 1.46087e-006 -1.18287e-006 2.62925e-007 -6.00196e-007 -1.15295e-014 0 -0 1.51076e-014 6.36111e-015 4.77083e-015 1.11492e-007 -1.53007e-006 1.46087e-006 -1.18287e-006 2.62925e-007 -6.00196e-007 1.51076e-014 6.36111e-015 4.77083e-015 1.11492e-007 -1.53007e-006 1.46087e-006 -1.18287e-006 2.62925e-007 -6.00196e-007 -8.33305 22.3562 23.0905 -12.3501 51.876 11.2606 5.0925 12.1886 0.0911492 12.3576 3.65791 5.66692 2.52357 21.4684 -1.39857 -4.35566 5.16439 18.6099 
-11.0098 1.40977 -14.2207 -97.2022 3.49971 -33.7834 7.60187 17.6619 -2.63069 17.4001 34.739 -8.46176 17.4001 34.739 -8.46176 -21.0008 -0.0720676 0.034488 -0.731319 -0.00217136 -0.130412 -8.00257 -0.0420826 0.275752 -17.579 -0.859289 -28.2328 -29.727 0.630118 -72.7472 -6.51219 2.57103 0.0273107 6.52827e-007 6.33399e-008 -5.42842e-007 -0 0 3.97569e-016 1.59028e-015 -1.59028e-015 -3.97569e-016 1.59028e-015 -3.18055e-015 -0 6.52827e-007 6.33399e-008 -5.42842e-007 1.59028e-015 0 -7.95139e-016 1.59028e-015 1.59028e-015 -3.97569e-016 6.52827e-007 6.33399e-008 -5.42842e-007 1.59028e-015 0 -7.95139e-016 1.59028e-015 1.59028e-015 -3.97569e-016 1.59028e-015 -3.18055e-015 -0 6.52827e-007 6.33399e-008 -5.42842e-007 1.59028e-015 0 -7.95139e-016 1.59028e-015 1.59028e-015 -3.97569e-016 6.52827e-007 6.33399e-008 -5.42842e-007 1.59028e-015 0 -7.95139e-016 1.59028e-015 1.59028e-015 -3.97569e-016 7.99916 -0.194723 5.28302e-006 44.7544 -3.35785 76.1664 12.5004 6.9651 3.58363 18.6267 7.3938 -0.71416 3.4769e-006 2.81709e-006 4.88174e-007 -2.18292e-006 6.05108e-007 -2.85263e-007 7.13158e-008 1.60932e-006 -5.45731e-007 9.93923e-016 1.59028e-015 -0 3.4769e-006 2.81709e-006 4.88174e-007 -2.18292e-006 6.05108e-007 -2.85263e-007 7.13158e-008 1.60932e-006 -5.45731e-007 3.4769e-006 2.81709e-006 4.88174e-007 -2.18292e-006 6.05108e-007 -2.85263e-007 7.13158e-008 1.60932e-006 -5.45731e-007 9.93923e-016 1.59028e-015 -0 3.4769e-006 2.81709e-006 4.88174e-007 -2.18292e-006 6.05108e-007 -2.85263e-007 7.13158e-008 1.60932e-006 -5.45731e-007 3.4769e-006 2.81709e-006 4.88174e-007 -2.18292e-006 6.05108e-007 -2.85263e-007 7.13158e-008 1.60932e-006 -5.45731e-007 -8.33305 22.3562 23.0905 -12.3501 51.8762 11.2607 5.0925 12.1884 0.0911789 12.3577 3.65819 5.66727 2.52355 21.468 -1.39856 -4.35567 5.16427 18.6099 
-11.0098 1.40977 -14.2207 -97.2022 3.49971 -33.7834 7.60188 17.6619 -2.6307 17.4001 34.739 -8.46176 17.4001 34.739 -8.46177 -21.0006 -0.0718351 0.0344157 -0.520018 0.021432 -0.260777 -8.00257 -0.042081 0.275752 -17.579 -0.859283 -28.2328 -29.7273 0.494067 -72.7158 -6.51219 2.57105 0.0273131 -1.739e-006 6.37592e-008 -7.62269e-007 -2.82529e-006 1.90041e-007 -2.06768e-006 2.19124e-007 2.51326e-007 -2.39171e-006 -1.59028e-015 0 -0 -1.739e-006 6.37592e-008 -7.62269e-007 -2.82529e-006 1.90041e-007 -2.06768e-006 2.19124e-007 2.51326e-007 -2.39171e-006 -1.739e-006 6.37592e-008 -7.62269e-007 -2.82529e-006 1.90041e-007 -2.06768e-006 2.19124e-007 2.51326e-007 -2.39171e-006 -1.59028e-015 0 -0 -1.739e-006 6.37592e-008 -7.62269e-007 -2.82529e-006 1.90041e-007 -2.06768e-006 2.19124e-007 2.51326e-007 -2.39171e-006 -1.739e-006 6.37592e-008 -7.62269e-007 -2.82529e-006 1.90041e-007 -2.06768e-006 2.19124e-007 2.51326e-007 -2.39171e-006 7.99916 -0.194723 5.70055e-006 44.7544 -3.35784 76.1664 12.5003 6.96512 3.58382 18.6267 7.3938 -0.714163 1.2185e-006 5.41747e-007 3.27368e-007 1.59028e-015 0 3.18055e-015 -1.2185e-006 -5.41747e-007 -3.27368e-007 -1.98785e-016 1.59028e-015 -1.59028e-015 1.2185e-006 5.41747e-007 3.27368e-007 5.96354e-015 -1.59028e-015 1.59028e-015 -1.2185e-006 -5.41747e-007 -3.27368e-007 1.2185e-006 5.41747e-007 3.27368e-007 5.96354e-015 -1.59028e-015 1.59028e-015 -1.2185e-006 -5.41747e-007 -3.27368e-007 -1.98785e-016 1.59028e-015 -1.59028e-015 1.2185e-006 5.41747e-007 3.27368e-007 5.96354e-015 -1.59028e-015 1.59028e-015 -1.2185e-006 -5.41747e-007 -3.27368e-007 1.2185e-006 5.41747e-007 3.27368e-007 5.96354e-015 -1.59028e-015 1.59028e-015 -1.2185e-006 -5.41747e-007 -3.27368e-007 -8.33303 22.3562 23.0905 -12.3502 51.8765 11.2608 5.0925 12.1881 0.0911742 12.3577 3.65824 5.66763 2.52356 21.468 -1.39857 -4.35567 5.16398 18.6099 
